<svg xmlns="http://www.w3.org/2000/svg" xmlns:xlink="http://www.w3.org/1999/xlink" width="130px" height="130px" viewBox="0 0 504 504" fill-rule="evenodd"><g><g><path style="stroke:none; fill:#e30613" d="M 0 252L 0 504L 252 504L 504 504L 504 252L 504 0L 252 0L 0 0L 0 252zM 267.6 321.4C 270 323.8 271 325.7 271 327.9C 271 334.7 265.7 340 258.9 340C 256.7 340 254.8 339 252.4 336.6C 249.6 333.8 249 332.4 249 329C 249 325.6 249.6 324.2 252.4 321.4C 255.2 318.6 256.6 318 260 318C 263.4 318 264.8 318.6 267.6 321.4zM 108.4 352.5C 113.7 353.9 119.4 355 121 355C 123.3 355 124.3 354.4 125.2 352.5C 126.9 348.8 129.8 349.3 130.4 353.2C 131.8 361.6 133.9 382.3 133.5 383C 132.3 385 129.1 382.5 127.5 378.5C 123.8 368.7 116.1 361.6 106 358.6C 99.2 356.6 95.6 356.6 89.7 358.6C 83.4 360.7 80 365.1 80 371.2C 80 375.2 80.5 376.4 84.3 380.3C 86.6 382.8 92.2 386.9 96.8 389.4C 125.7 405.5 131.7 409.7 134.9 416.3C 139.9 426.6 138.2 437.6 130.6 445.3C 120 455.9 103.6 458.7 83.5 453.5C 73.2 450.8 70.5 450.9 69.5 454.1C 69.1 455.2 68 456 66.6 456C 64.4 456 64.1 455.3 62.1 442.6C 60.9 435.2 59.7 427.8 59.4 426.1C 58.8 423.3 59 423 61.1 423C 63 423 64.1 424.2 66.4 428.5C 73.1 441.4 83.5 448.7 96.5 449.7C 103.2 450.2 104.5 450 109.4 447.6C 115.8 444.5 118.5 441.2 119.4 435.4C 120.4 429.9 117.9 423.9 113 419.7C 110.9 418 101.9 412.4 93 407.5C 69.4 394.4 64.1 388.9 64 377.6C 64 364.5 72 354.9 85.8 351.6C 94 349.5 97.6 349.7 108.4 352.5zM 267.6 358.4C 271.6 362.4 272.1 366.7 269 371.7C 263.7 380.5 249 376.4 249 366.2C 249 359.4 253.2 355.1 259.9 355C 263.5 355 264.8 355.6 267.6 358.4zM 303.1 356C 304.1 356.6 305.7 358.4 306.5 360C 311.4 369.5 303.5 379.1 293.4 375.8C 285.9 373.3 283.9 363.8 289.6 357.8C 291.8 355.6 293.2 355 296.8 355C 299.2 355 302 355.5 303.1 356zM 212.2 385C 223.2 389.1 230 399.6 230.8 413.6C 231.9 434.7 218.3 453 199.5 455.4C 193.3 456.2 184.7 454.7 181 452C 179.5 450.9 177.9 450 177.6 450C 176.5 450 177 475.6 178.1 478.8C 179.3 482.2 183 484 188.6 484C 191.3 484 192 484.4 192 486C 192 488 191.5 488 170.8 487.8C 152.6 487.5 149.5 487.3 149.5 486C 149.5 485.1 150.6 484.4 152.5 484.2C 157.1 483.8 159.8 482 161 478.7C 162.3 474.8 162.4 400.1 161 396.6C 160.2 394.3 159.5 394 155.6 394C 151.5 394 149 392.7 150.4 391.3C 151.2 390.5 173.2 384 175.3 384C 176.7 384 177 384.9 177 388.5C 177 391 177.2 393 177.4 393C 177.6 393 180.1 391.4 183 389.5C 192.7 383 202.8 381.4 212.2 385zM 343.4 385.6C 350.1 387.9 356 393.7 356 398C 356 404.9 348.4 408.4 342.8 404C 341.4 403 339.3 399.4 338.1 396.1C 336.3 391.2 335.4 390 332.8 389.1C 325.7 386.6 318.2 388.7 311.9 395C 298.4 408.4 304.1 435.4 321.8 442C 332.4 446 342.3 443.5 351 434.6C 357.7 427.8 360.3 428.7 355.7 436.2C 352.2 442 344.7 449.3 339.6 451.8C 332 455.6 324.3 456.6 316.5 454.7C 296.6 449.8 286.3 431.9 291.5 411.5C 297 390.1 321.1 378 343.4 385.6zM 268.2 415C 268.5 445.2 268.6 446 270.7 448.1C 271.9 449.3 274.5 450.6 276.6 450.9C 278.7 451.2 280.5 452.1 280.8 452.8C 281.1 453.7 276.5 454 260 454C 243.5 454 238.9 453.7 239.2 452.7C 239.5 452.1 241.8 451.3 244.3 451C 252.6 450 252.5 450.4 252.8 422C 253.1 398.1 253 397 251.1 395.1C 249.4 393.4 248.3 393.1 244.4 393.7C 240.8 394.2 239.8 394 240.2 393C 240.6 391.8 262.4 384.4 266.2 384.1C 267.7 384 267.9 386.7 268.2 415zM 400.3 386.5C 400.2 387 398.4 387.8 396.4 388.1C 391.9 388.9 389.8 391.3 390.9 394.4C 391.4 395.5 394.3 401.2 397.5 406.9C 400.6 412.7 405 421 407.2 425.3C 409.6 430.1 411.5 432.9 412.1 432.3C 413.4 431 428 396.5 428.6 393.1C 429.3 389.9 427.1 388 423.1 388C 421.9 388 421 387.3 421 386.5C 421 385.2 423 385 433 385C 442.6 385 445 385.3 445 386.4C 445 387.2 443.9 388.1 442.6 388.4C 441.3 388.7 439.6 390 438.7 391.3C 437.9 392.6 431 408 423.5 425.6C 403.4 472.3 399.3 479.8 391.2 484.7C 381.4 490.7 367 487.3 367 479C 367 477.3 367.9 475.1 369.1 473.9C 371.3 471.7 373.4 471.6 386.3 473.6C 389.6 474.1 390.6 473.8 393 471.5C 396.3 468.3 401.9 457.5 402.7 452.6C 403.2 449.7 402 446.8 394.8 433.3C 390.1 424.6 383.4 412.1 379.9 405.5C 373.2 392.8 369.5 388 366.1 388C 364.9 388 364 387.4 364 386.5C 364 385.2 366.5 385 382.3 385.2C 393.7 385.4 400.4 385.9 400.3 386.5z"/><path style="stroke:none; fill:#e30613" d="M 186 394.6C 184.1 395.4 181.3 397.3 179.8 398.7L 177 401.4L 177 420.4C 177 441.7 177.7 444.2 184 447.5C 194.9 453.1 206.4 448.6 212.5 436.3C 215 431.2 215.3 429.4 215.4 420.9C 215.5 412.2 215.2 410.9 212.5 405.4C 207.1 395 195.8 390.3 186 394.6z"/></g></g></svg>