<svg version="1.0" xmlns="http://www.w3.org/2000/svg"
 width="504.000000pt" height="504.000000pt" viewBox="0 0 504.000000 504.000000"
 preserveAspectRatio="xMidYMid meet">

<g transform="translate(0.000000,504.000000) scale(0.100000,-0.100000)"
fill="#e30613" stroke="none">
<path d="M0 2520 l0 -2520 2520 0 2520 0 0 2520 0 2520 -2520 0 -2520 0 0
-2520z m2650 -675 c30 -16 60 -61 60 -90 0 -36 -32 -84 -67 -100 -98 -47 -198
75 -132 159 36 46 88 58 139 31z m-1527 -341 c85 -25 101 -24 134 15 33 40 44
18 59 -116 7 -65 16 -135 19 -155 5 -35 3 -38 -18 -38 -18 0 -27 10 -42 51
-11 29 -39 74 -63 100 -140 156 -412 137 -412 -29 0 -84 33 -116 245 -232 235
-129 303 -188 325 -282 23 -92 -7 -177 -86 -246 -102 -90 -263 -115 -436 -68
-118 32 -133 32 -154 1 -9 -14 -24 -25 -34 -25 -14 0 -20 23 -39 143 -12 78
-25 152 -28 165 -4 18 -1 22 19 22 19 0 29 -11 51 -56 60 -122 171 -202 294
-212 162 -13 269 85 234 215 -16 60 -71 104 -254 206 -92 51 -187 109 -211
129 -143 120 -101 338 80 414 92 39 183 38 317 -2z m1535 -30 c59 -41 65 -119
13 -168 -69 -66 -181 -14 -181 84 0 48 55 100 107 100 21 0 49 -7 61 -16z
m388 -18 c65 -65 37 -149 -59 -180 -42 -14 -113 38 -123 89 -12 65 41 125 109
125 31 0 46 -7 73 -34z m-898 -280 c57 -29 106 -82 136 -145 17 -38 21 -65 21
-151 0 -99 -2 -110 -32 -171 -62 -125 -151 -198 -268 -220 -70 -13 -148 2
-200 37 l-36 24 3 -154 c4 -182 6 -187 92 -194 39 -3 56 -9 56 -18 0 -11 -38
-14 -210 -14 -131 0 -210 4 -210 10 0 5 12 12 28 16 50 10 72 24 82 50 6 15
10 187 10 423 0 446 2 434 -69 434 -37 0 -61 11 -49 23 7 6 240 74 255 74 9 0
13 -16 13 -49 l0 -49 65 43 c36 24 84 48 107 54 63 15 151 5 206 -23z m1290 3
c24 -10 55 -28 70 -39 80 -63 64 -155 -28 -155 -48 0 -74 23 -90 78 -20 73
-50 97 -122 97 -57 -1 -116 -28 -157 -75 -50 -58 -65 -99 -65 -190 -1 -68 3
-88 27 -137 88 -179 294 -213 436 -71 67 68 90 59 42 -16 -113 -175 -307 -234
-474 -143 -159 86 -220 298 -135 466 50 99 168 187 275 206 66 12 169 2 221
-21z m-756 -292 c2 -239 6 -318 16 -330 7 -8 35 -21 62 -27 28 -7 50 -16 50
-21 0 -5 -92 -9 -210 -9 -127 0 -210 4 -210 10 0 5 17 12 38 15 60 10 90 25
96 48 3 12 6 131 6 264 l0 243 -24 15 c-17 11 -35 14 -65 9 -74 -12 -45 14 47
41 48 14 105 32 127 40 22 7 45 14 52 14 9 1 13 -77 15 -312z m1318 288 c0
-10 -10 -15 -34 -15 -34 0 -66 -21 -66 -42 0 -19 214 -418 221 -410 17 21 169
393 169 415 0 21 -6 28 -27 33 -46 10 -53 13 -53 24 0 6 42 10 114 10 114 0
151 -11 102 -30 -14 -5 -32 -20 -41 -34 -9 -13 -82 -177 -161 -363 -175 -406
-204 -463 -269 -529 -71 -72 -144 -87 -238 -52 -79 30 -54 139 32 138 20 -1
58 -7 86 -14 27 -7 57 -11 68 -8 36 9 127 170 127 226 0 25 -54 133 -264 530
-34 63 -76 106 -107 106 -10 0 -19 7 -19 15 0 13 27 15 180 15 153 0 180 -2
180 -15z"/>
<path d="M1853 1095 c-18 -8 -44 -25 -58 -39 l-25 -25 0 -200 0 -199 27 -33
c68 -81 206 -77 285 7 51 55 72 119 72 224 1 109 -12 156 -57 207 -59 67 -166
92 -244 58z"/>
</g>
</svg>
